#!OML:ASF X:\für Bonn\!DataBase\2005_08_12_Daniel\c3d\Daniel.ASF
:FULLY-SPECIFIED
:DEGREES
82
root 0.654567 6.07997 -0.826309 28.1209 -87.1918 -62.7164
lowerback 60.9915 -3.63822 5.74017
upperback 4.22647 -2.78506 -1.90294
thorax -17.3043 -2.14284 -3.03802
lowerneck 7.31577 1.55186 -1.15719
upperneck -3.46109 1.92481 -0.562262
head -2.36059 0.990731 -0.0617467
rclavicle -4.47266e-015 -1.98785e-014
rhumerus 68.1467 0.83015 -88.9827
rradius 9.81817
rwrist 50.6203
rhand -22.9538 10.7185
rfingers 7.12502
rthumb 3.48768 -19.2327
lclavicle -4.47266e-015 -1.98785e-014
lhumerus 67.3559 4.59757 97.3185
lradius 9.49335
lwrist -71.4758
lhand -23.2134 -2.34072
lfingers 7.12502
lthumb 3.23704 27.6145
rfemur 12.101 -52.534 -135.394
rtibia 157.172
rfoot -90.5685 84.207
rtoes -7.73837
lfemur -0.639763 67.0047 120.16
ltibia 155.446
lfoot 9.58653 -84.1897
ltoes 7.81749
83
root 0.652456 6.03713 -0.824803 26.621 -87.1853 -61.1345
lowerback 60.8232 -3.65025 5.74411
upperback 4.38766 -2.82668 -1.91873
thorax -17.1013 -2.16011 -3.04099
lowerneck 6.98943 1.53108 -1.12665
upperneck -3.46095 1.90324 -0.611034
head -2.29933 0.98099 -0.078643
rclavicle 4.96962e-016 -2.34566e-014
rhumerus 67.9874 0.880945 -88.8365
rradius 9.99394
rwrist 50.5561
rhand -22.7906 10.5867
rfingers 7.12502
rthumb 3.64529 -19.3619
lclavicle 4.96962e-016 -2.34566e-014
lhumerus 67.1883 4.70427 97.1459
lradius 9.60213
lwrist -70.8888
lhand -22.9726 -2.54973
lfingers 7.12502
lthumb 3.46955 27.4018
rfemur 11.9592 -52.272 -136.521
rtibia 157.619
rfoot -95.814 83.5667
rtoes -8.29969
lfemur -0.253573 67.2454 121.254
ltibia 155.766
lfoot 11.903 -84.4184
ltoes 7.76404
84
root 0.651815 6.01885 -0.823585 25.378 -87.1703 -59.7897
lowerback 60.707 -3.66872 5.75465
upperback 4.50962 -2.86408 -1.93229
thorax -16.9488 -2.17597 -3.0452
lowerneck 6.70763 1.51662 -1.12107
upperneck -3.47884 1.88866 -0.624122
head -2.25316 0.974042 -0.0807434
rclavicle 3.97569e-016 5.56597e-015
rhumerus 67.8891 0.912873 -88.6847
rradius 10.0113
rwrist 50.4979
rhand -22.7146 10.5676
rfingers 7.12502
rthumb 3.71868 -19.3797
lclavicle 3.97569e-016 5.56597e-015
lhumerus 67.0705 4.80119 96.9783
lradius 9.55538
lwrist -70.3127
lhand -22.749 -2.70958
lfingers 7.12502
lthumb 3.68549 27.2383
rfemur 12.0624 -52.0342 -137.3
rtibia 157.893
rfoot -97.4651 82.7476
rtoes -8.84696
lfemur 0.0476054 67.4049 121.831
ltibia 155.93
lfoot 11.6897 -84.5664
ltoes 7.62624
85
root 0.65177 6.02628 -0.822136 24.0742 -87.1565 -58.3246
lowerback 60.5447 -3.6868 5.7634
upperback 4.63542 -2.90329 -1.94853
thorax -16.7905 -2.19153 -3.05206
lowerneck 6.457 1.51081 -1.13635
upperneck -3.52866 1.88341 -0.628569
head -2.22375 0.971944 -0.0774014
rclavicle 3.67752e-015 -5.1684e-015
rhumerus 67.8686 0.847864 -88.8478
rradius 9.87033
rwrist 50.7731
rhand -22.7512 10.5704
rfingers 7.12502
rthumb 3.68332 -19.3776
lclavicle 3.67752e-015 -5.1684e-015
lhumerus 66.9305 4.90284 96.8066
lradius 9.55
lwrist -69.7667
lhand -22.5216 -2.82561
lfingers 7.12502
lthumb 3.90504 27.1184
rfemur 12.4082 -51.9588 -137.729
rtibia 158.011
rfoot -95.742 81.6557
rtoes -9.65806
lfemur 0.416623 67.5399 121.952
ltibia 155.926
lfoot 8.20496 -84.5511
ltoes 7.46476
86
root 0.653814 6.05127 -0.820223 22.4794 -87.1501 -56.5517
lowerback 60.3962 -3.70633 5.76762
upperback 4.73643 -2.94668 -1.98428
thorax -16.6656 -2.20766 -3.07723
lowerneck 6.31478 1.49526 -1.10628
upperneck -3.60804 1.86615 -0.649763
head -2.22335 0.963922 -0.0877987
rclavicle 1.98785e-016 -5.56597e-015
rhumerus 67.7817 0.735875 -89.0187
rradius 9.70562
rwrist 51.0841
rhand -22.9041 10.6446
rfingers 7.12502
rthumb 3.53573 -19.3058
lclavicle 1.98785e-016 -5.56597e-015
lhumerus 66.7177 4.99427 96.6094
lradius 9.54352
lwrist -69.3436
lhand -22.4191 -2.8752
lfingers 7.12502
lthumb 4.00405 27.0669
rfemur 12.9685 -51.9053 -137.976
rtibia 157.998
rfoot -93.0743 80.6176
rtoes -10.2597
lfemur 0.783111 67.6249 121.702
ltibia 155.823
lfoot 1.36098 -84.418
ltoes 7.18052
87
root 0.657776 6.09411 -0.818942 21.7423 -87.1338 -55.5978
lowerback 60.2206 -3.712 5.77277
upperback 4.83956 -2.96582 -1.98137
thorax -16.5319 -2.21445 -3.07096
lowerneck 6.21927 1.48147 -1.16487
upperneck -3.73223 1.8429 -0.661268
head -2.24744 0.954174 -0.0804343
rclavicle 1.90833e-014 2.70347e-014
rhumerus 67.6812 0.696693 -89.1721
rradius 9.51299
rwrist 51.4448
rhand -23.1715 10.7264
rfingers 7.12502
rthumb 3.27744 -19.2281
lclavicle 1.90833e-014 2.70347e-014
lhumerus 66.3988 5.12974 96.4377
lradius 9.70751
lwrist -69.0055
lhand -22.3454 -2.92552
lfingers 7.12502
lthumb 4.07524 27.0153
rfemur 13.7275 -51.9558 -137.944
rtibia 157.869
rfoot -89.5919 79.4606
rtoes -10.9362
lfemur 0.978885 67.7242 121.017
ltibia 155.598
lfoot -5.1876 -84.0467
ltoes 6.88133
88
root 0.663649 6.15295 -0.817713 20.2363 -87.1136 -53.8599
lowerback 60.0799 -3.72969 5.75168
upperback 4.89972 -3.01155 -1.99366
thorax -16.4564 -2.22985 -3.05617
lowerneck 6.29114 1.48648 -1.25869
upperneck -3.92459 1.84085 -0.627332
head -2.32593 0.954827 -0.0552843
rclavicle -6.75868e-015 7.15625e-015
rhumerus 67.4302 0.646732 -89.3394
rradius 9.43569
rwrist 51.7998
rhand -23.4449 10.863
rfingers 7.12502
rthumb 3.01346 -19.0954
lclavicle -6.75868e-015 7.15625e-015
lhumerus 65.9413 5.28445 96.2352
lradius 10.0019
lwrist -68.8171
lhand -22.3812 -2.8899
lfingers 7.12502
lthumb 4.04062 27.0515
rfemur 14.618 -52.057 -137.707
rtibia 157.631
rfoot -85.6743 78.1512
rtoes -11.575
lfemur 1.01066 67.852 119.795
ltibia 155.269
lfoot -12.236 -83.4133
ltoes 6.57916
89
root 0.67182 6.18225 -0.81343 18.8036 -87.0906 -52.1356
lowerback 59.9042 -3.75299 5.76048
upperback 4.94727 -3.04484 -2.02118
thorax -16.3949 -2.23989 -3.07944
lowerneck 6.47236 1.47655 -1.39931
upperneck -4.17593 1.81367 -0.564802
head -2.44541 0.943388 -0.0131163
rclavicle 1.94809e-014 1.51076e-014
rhumerus 67.1498 0.579115 -89.519
rradius 9.45404
rwrist 52.155
rhand -23.637 10.936
rfingers 7.12502
rthumb 2.82789 -19.025
lclavicle 1.94809e-014 1.51076e-014
lhumerus 65.3044 4.83743 94.7693
lradius 10.4376
lwrist -67.2992
lhand -22.4128 -2.59926
lfingers 7.12502
lthumb 4.01011 27.3427
rfemur 14.6641 -52.694 -136.925
rtibia 157.605
rfoot -81.1633 77.3948
rtoes -12.2829
lfemur -0.559721 68.262 117.274
ltibia 155.157
lfoot -13.0567 -82.5792
ltoes 6.42378
90
root 0.682871 6.26905 -0.812285 17.8462 -87.0754 -50.8848
lowerback 59.7861 -3.77152 5.74663
upperback 4.96217 -3.07896 -2.03264
thorax -16.3749 -2.25008 -3.07206
lowerneck 6.69372 1.48425 -1.55808
upperneck -4.445 1.80649 -0.508317
head -2.57923 0.942643 0.0293186
rclavicle -8.74653e-015 -2.0276e-014
rhumerus 66.8311 0.545366 -89.6942
rradius 9.53106
rwrist 52.5344
rhand -23.7896 11.0616
rfingers 7.12502
rthumb 2.68051 -18.9013
lclavicle -8.74653e-015 -2.0276e-014
lhumerus 64.7201 4.59358 93.7633
lradius 10.9017
lwrist -66.3561
lhand -22.4039 -2.41075
lfingers 7.12502
lthumb 4.01875 27.5311
rfemur 15.7714 -53.0672 -136.189
rtibia 157.163
rfoot -76.5473 76.0656
rtoes -12.7849
lfemur -0.83176 68.4169 115.247
ltibia 154.64
lfoot -18.2097 -81.5232
ltoes 6.09176
91
root 0.697877 6.37323 -0.810863 16.7186 -87.0573 -49.4291
lowerback 59.7243 -3.79855 5.74664
upperback 4.9274 -3.10733 -2.05582
thorax -16.4191 -2.25762 -3.08577
lowerneck 6.86019 1.47971 -1.7016
upperneck -4.64656 1.78647 -0.434815
head -2.68072 0.934295 0.0762131
rclavicle 1.61016e-014 -3.97569e-015
rhumerus 66.4917 0.489423 -89.8721
rradius 9.65816
rwrist 52.975
rhand -23.8251 11.1052
rfingers 7.12502
rthumb 2.64625 -18.8581
lclavicle 1.61016e-014 -3.97569e-015
lhumerus 64.2454 4.29534 92.7848
lradius 11.1628
lwrist -65.3711
lhand -22.46 -2.13143
lfingers 7.12502
lthumb 3.96454 27.8114
rfemur 16.9628 -53.5817 -135.174
rtibia 156.581
rfoot -71.736 74.6896
rtoes -13.2287
lfemur -1.57842 68.6256 112.399
ltibia 154.001
lfoot -21.4031 -80.227
ltoes 5.91592
92
root 0.718653 6.4966 -0.808302 16.019 -87.0133 -48.3945
lowerback 59.7803 -3.86957 5.79024
upperback 4.83449 -3.15043 -2.08569
thorax -16.5416 -2.27344 -3.11548
lowerneck 6.98262 1.47043 -1.76446
upperneck -4.81469 1.76452 -0.426449
head -2.76132 0.92549 0.0890475
rclavicle 2.22639e-014 2.3059e-014
rhumerus 66.1726 0.439535 -90.0588
rradius 9.78791
rwrist 53.3451
rhand -23.7539 11.1677
rfingers 7.12502
rthumb 2.71501 -18.7948
lclavicle 2.22639e-014 2.3059e-014
lhumerus 63.8413 3.97248 91.7448
lradius 11.3605
lwrist -64.3558
lhand -22.4011 -1.83399
lfingers 7.12502
lthumb 4.02142 28.1078
rfemur 18.1157 -54.2758 -133.649
rtibia 155.828
rfoot -66.7028 73.2401
rtoes -13.5267
lfemur -3.287 68.891 108.255
ltibia 153.221
lfoot -22.673 -78.6325
ltoes 5.82703
93
root 0.742275 6.63437 -0.80696 15.2884 -86.96 -47.2808
lowerback 59.8761 -3.93468 5.81235
upperback 4.67818 -3.18557 -2.09729
thorax -16.7426 -2.28418 -3.11732
lowerneck 7.07268 1.46073 -1.84836
upperneck -4.90016 1.74114 -0.416631
head -2.80824 0.915776 0.106769
rclavicle 9.74045e-015 -8.34896e-015
rhumerus 65.8515 0.394752 -90.2269
rradius 9.87478
rwrist 53.7456
rhand -23.5998 11.1574
rfingers 7.12502
rthumb 2.86382 -18.8031
lclavicle 9.74045e-015 -8.34896e-015
lhumerus 63.4147 3.43809 90.1747
lradius 11.5431
lwrist -62.7882
lhand -22.2213 -1.4989
lfingers 7.12502
lthumb 4.19506 28.4395
rfemur 19.0589 -55.2106 -131.681
rtibia 154.98
rfoot -61.4991 71.7754
rtoes -13.8402
lfemur -5.76886 69.1631 103.119
ltibia 152.319
lfoot -22.8752 -76.9237
ltoes 5.79226
94
root 0.769167 6.78204 -0.805831 14.2129 -86.9137 -45.8268
lowerback 59.9882 -3.99263 5.8059
upperback 4.54069 -3.23242 -2.10124
thorax -16.922 -2.2993 -3.09137
lowerneck 7.16448 1.46263 -1.94973
upperneck -5.0259 1.73048 -0.412647
head -2.86955 0.913263 0.124928
rclavicle 4.27387e-015 -1.55052e-014
rhumerus 65.6474 0.374431 -90.3866
rradius 9.90578
rwrist 54.1695
rhand -23.3994 11.0641
rfingers 7.12502
rthumb 3.05744 -18.8937
lclavicle 4.27387e-015 -1.55052e-014
lhumerus 63.1592 3.11427 89.1159
lradius 11.6433
lwrist -61.7495
lhand -21.9781 -1.19341
lfingers 7.12502
lthumb 4.42992 28.7403
rfemur 19.5375 -56.3253 -129.147
rtibia 154.037
rfoot -56.1979 70.4372
rtoes -13.9589
lfemur -9.30032 69.3394 96.769
ltibia 151.342
lfoot -22.7697 -75.0076
ltoes 5.74635
95
root 0.796891 6.93531 -0.806007 13.7583 -86.8526 -44.9631
lowerback 60.0932 -4.05272 5.82552
upperback 4.37381 -3.25989 -2.10542
thorax -17.1363 -2.30679 -3.08715
lowerneck 7.42381 1.45425 -1.99952
upperneck -5.24486 1.70491 -0.426392
head -2.99385 0.903923 0.127571
rclavicle 3.97569e-015 -5.96354e-015
rhumerus 65.4819 0.319179 -90.5525
rradius 9.83115
rwrist 54.5929
rhand -23.2092 10.9118
rfingers 7.12502
rthumb 3.24105 -19.0434
lclavicle 3.97569e-015 -5.96354e-015
lhumerus 62.9066 2.67926 87.8849
lradius 11.7644
lwrist -60.5941
lhand -21.5712 -0.849397
lfingers 7.12502
lthumb 4.82282 29.0757
rfemur 19.6326 -57.5666 -126.141
rtibia 153.07
rfoot -51.8431 68.6982
rtoes -14.2588
lfemur -13.6414 69.3774 89.6532
ltibia 150.311
lfoot -22.2535 -73.0492
ltoes 5.67512
96
root 0.824592 7.08523 -0.80575 13.3683 -86.7946 -44.1664
lowerback 60.1561 -4.11815 5.85586
upperback 4.22505 -3.29499 -2.13207
thorax -17.3294 -2.31747 -3.11098
lowerneck 7.66445 1.43999 -1.94912
upperneck -5.41827 1.67914 -0.48931
head -3.09787 0.893991 0.0971595
rclavicle -1.87852e-014 3.97569e-016
rhumerus 65.3377 0.250268 -90.7514
rradius 9.74492
rwrist 55.0148
rhand -23.0163 10.6928
rfingers 7.12502
rthumb 3.42738 -19.2594
lclavicle -1.87852e-014 3.97569e-016
lhumerus 62.7084 2.29626 86.7767
lradius 11.8864
lwrist -59.6999
lhand -21.1025 -0.508867
lfingers 7.12502
lthumb 5.27539 29.4055
rfemur 19.2772 -58.8228 -122.849
rtibia 152.098
rfoot -47.7795 67.178
rtoes -14.4025
lfemur -18.2121 69.1956 82.4375
ltibia 149.282
lfoot -21.9138 -71.1381
ltoes 5.58374
